<?xml version="1.0" encoding="UTF-8"?>
<svg width="35px" height="46px" viewBox="0 0 35 46" version="1.1" xmlns="http://www.w3.org/2000/svg" xmlns:xlink="http://www.w3.org/1999/xlink">
    <!-- Generator: Sketch 53.2 (72643) - https://sketchapp.com -->
    <title>Group 3</title>
    <desc>Created with Sketch.</desc>
    <g id="Page-1" stroke="none" stroke-width="1" fill="none" fill-rule="evenodd">
        <g id="Group-3" transform="translate(17.500000, 22.500000) rotate(180.000000) translate(-17.500000, -22.500000) translate(0.000000, -1.000000)" fill-rule="nonzero">
            <g id="Group40" transform="translate(0.000000, 11.270436)">
                <g id="Group">
                    <g id="Layer0_247_FILL-link">
                        <g id="Layer0_247_FILL">
                            <path d="M28.6026155,0.394698795 C28.3393003,0.131566265 28.0211277,0 27.6480978,0 L6.58288043,0 C6.20985054,0 5.90264946,0.131566265 5.66127717,0.394698795 L0.394972826,5.6573494 C0.131657609,5.89855422 0,6.20554217 0,6.57831325 L0,27.6289157 C0,28.0016867 0.131657609,28.3196386 0.394972826,28.5827711 L5.66127717,33.8454217 C5.90264946,34.0866265 6.20985054,34.2072289 6.58288043,34.2072289 L27.6480978,34.2072289 C28.0211277,34.2072289 28.3393003,34.0866265 28.6026155,33.8454217 L33.8689198,28.5827711 C34.1102921,28.3196386 34.2309783,28.0016867 34.2309783,27.6289157 L34.2309783,6.57831325 C34.2309783,6.20554217 34.1102921,5.89855422 33.8689198,5.6573494 L28.6026155,0.394698795 L28.6026155,0.394698795 Z M27.6480978,1.31566265 L32.9144022,6.57831325 L32.9144022,27.6289157 L27.6480978,32.8915663 L6.58288043,32.8915663 L1.31657609,27.6289157 L1.31657609,6.57831325 L6.58288043,1.31566265 L27.6480978,1.31566265 Z" id="Shape" fill="#758C8E"></path>
                            <path d="M6.58288043,32.8915663 L11.8491848,27.6289157 L6.58288043,22.3662651 L1.31657609,27.6289157 L6.58288043,32.8915663 L6.58288043,32.8915663 Z M22.3817935,27.6289157 L27.6480978,32.8915663 L32.9144022,27.6289157 L27.6480978,22.3662651 L22.3817935,27.6289157 L22.3817935,27.6289157 Z M11.8491848,6.57831325 L6.58288043,1.31566265 L1.31657609,6.57831325 L6.58288043,11.8409639 L11.8491848,6.57831325 L11.8491848,6.57831325 Z M32.9144022,6.57831325 L27.6480978,1.31566265 L22.3817935,6.57831325 L27.6480978,11.8409639 L32.9144022,6.57831325 Z" id="Shape" fill="#A3C3C6"></path>
                            <path d="M6.58288043,32.8915663 L27.6480978,32.8915663 L22.3817935,27.6289157 L11.8491848,27.6289157 L6.58288043,32.8915663 L6.58288043,32.8915663 Z M27.6480978,11.8409639 L27.6480978,22.3662651 L32.9144022,27.6289157 L32.9144022,6.57831325 L27.6480978,11.8409639 L27.6480978,11.8409639 Z M6.58288043,22.3662651 L6.58288043,11.8409639 L1.31657609,6.57831325 L1.31657609,27.6289157 L6.58288043,22.3662651 L6.58288043,22.3662651 Z M22.3817935,6.57831325 L27.6480978,1.31566265 L6.58288043,1.31566265 L11.8491848,6.57831325 L22.3817935,6.57831325 Z" id="Shape" fill="#94B1B4"></path>
                            <polygon id="Path" fill="#89A4A6" points="6.58288043 11.8409639 6.58288043 22.3662651 11.8491848 27.6289157 22.3817935 27.6289157 27.6480978 22.3662651 27.6480978 11.8409639 22.3817935 6.57831325 11.8491848 6.57831325"></polygon>
                        </g>
                    </g>
                </g>
                <g id="Group" transform="translate(2.000000, 8.000000)">
                    <g id="Layer0_1_FILL-link">
                        <g id="Layer0_1_FILL">
                            <path d="M1.31657609,0 C0.943546196,0 0.636345109,0.131566265 0.394972826,0.394698795 C0.131657609,0.635903614 0,0.942891566 0,1.31566265 L0,17.1036145 C0,17.4763855 0.131657609,17.7943373 0.394972826,18.0574699 L5.66127717,23.3201205 C5.90264946,23.5613253 6.20985054,23.6819277 6.58288043,23.6819277 L23.6983696,23.6819277 C24.0713995,23.6819277 24.389572,23.5613253 24.6528872,23.3201205 L29.9191916,18.0574699 C30.1605639,17.7943373 30.28125,17.4763855 30.28125,17.1036145 L30.28125,1.31566265 C30.28125,0.942891566 30.1605639,0.635903614 29.9191916,0.394698795 C29.6558764,0.131566265 29.3377038,0 28.9646739,0 L1.31657609,0 L1.31657609,0 Z M1.31657609,1.31566265 L6.58288043,1.31566265 L23.6983696,1.31566265 L28.9646739,1.31566265 L28.9646739,17.1036145 L23.6983696,22.3662651 L6.58288043,22.3662651 L1.31657609,17.1036145 L1.31657609,1.31566265 Z" id="Shape" fill="#727272"></path>
                            <path d="M28.9646739,1.31566265 L23.6983696,1.31566265 L23.6983696,22.3662651 L28.9646739,17.1036145 L28.9646739,1.31566265 L28.9646739,1.31566265 Z M6.58288043,1.31566265 L1.31657609,1.31566265 L1.31657609,17.1036145 L6.58288043,22.3662651 L6.58288043,1.31566265 Z" id="Shape" fill="#939393"></path>
                            <polygon id="Path" fill="#9F9F9F" points="6.58288043 1.31566265 6.58288043 22.3662651 23.6983696 22.3662651 23.6983696 1.31566265"></polygon>
                        </g>
                    </g>
                </g>
            </g>
            <g id="Group" transform="translate(3.000000, 0.000000)">
                <g id="Layer0_271_FILL-link">
                    <g id="Layer0_271_FILL">
                        <path d="M17.1154891,36.1807229 L22.3817935,36.1807229 L25.0149457,30.9180723 L17.1154891,36.1807229 L17.1154891,36.1807229 Z M6.58288043,36.1807229 L11.8491848,36.1807229 L3.94972826,30.9180723 L6.58288043,36.1807229 L6.58288043,36.1807229 Z M17.1154891,15.1301205 L11.8491848,15.1301205 L1.31657609,20.3927711 L1.31657609,30.9180723 L3.94972826,30.9180723 L25.0149457,30.9180723 L27.6480978,30.9180723 L27.6480978,20.3927711 L17.1154891,15.1301205 Z" id="Shape" fill="#E74C3C"></path>
                        <path d="M25.0149457,30.9180723 L3.94972826,30.9180723 L11.8491848,36.1807229 L17.1154891,36.1807229 L25.0149457,30.9180723 L25.0149457,30.9180723 Z M27.6480978,20.3927711 L23.6983696,16.4457831 L22.3817935,15.1301205 L17.1154891,15.1301205 L27.6480978,20.3927711 L27.6480978,20.3927711 Z M11.8491848,15.1301205 L6.58288043,15.1301205 L5.26630435,16.4457831 L1.31657609,20.3927711 L11.8491848,15.1301205 Z" id="Shape" fill="#D24536"></path>
                        <path d="M28.9646739,20.3927711 C28.9646739,20.02 28.8439878,19.713012 28.6026155,19.4718072 L23.6983696,14.5709639 L23.6983696,16.4457831 L27.6480978,20.3927711 L27.6480978,30.9180723 L25.0149457,30.9180723 L22.3817935,36.1807229 L17.1154891,36.1807229 L11.8491848,36.1807229 L6.58288043,36.1807229 L3.94972826,30.9180723 L1.31657609,30.9180723 L1.31657609,20.3927711 L5.26630435,16.4457831 L5.26630435,14.5709639 L0.394972826,19.4718072 C0.131657609,19.713012 0,20.02 0,20.3927711 L0,30.9180723 C0,31.2908434 0.131657609,31.6087952 0.394972826,31.8719277 C0.636345109,32.1131325 0.943546196,32.2337349 1.31657609,32.2337349 L3.12686821,32.2337349 L5.39796196,36.7727711 C5.50767663,36.9920482 5.67224864,37.1674699 5.89167799,37.2990361 C6.11110734,37.4306024 6.34150815,37.4963855 6.58288043,37.4963855 L22.3817935,37.4963855 C22.6231658,37.4963855 22.8535666,37.4306024 23.0729959,37.2990361 C23.2924253,37.1674699 23.4569973,36.9920482 23.566712,36.7727711 L25.8378057,32.2337349 L27.6480978,32.2337349 C28.0211277,32.2337349 28.3393003,32.1131325 28.6026155,31.8719277 C28.8439878,31.6087952 28.9646739,31.2908434 28.9646739,30.9180723 L28.9646739,20.3927711 Z" id="Path" fill="#AF392D"></path>
                        <path d="M11.5200408,12.4987952 L11.5200408,1.31566265 L9.54517663,1.31566265 L9.54517663,12.4987952 L11.5200408,12.4987952 L11.5200408,12.4987952 Z M19.4194973,1.31566265 L17.4446332,1.31566265 L17.4446332,12.4987952 L19.4194973,12.4987952 L19.4194973,1.31566265 Z" id="Shape" fill="#ADADAD"></path>
                        <path d="M9.54517663,1.31566265 L7.89945652,1.31566265 L7.89945652,12.4987952 L9.54517663,12.4987952 L9.54517663,1.31566265 L9.54517663,1.31566265 Z M13.1657609,1.31566265 L11.5200408,1.31566265 L11.5200408,12.4987952 L13.1657609,12.4987952 L13.1657609,1.31566265 L13.1657609,1.31566265 Z M17.4446332,12.4987952 L17.4446332,1.31566265 L15.798913,1.31566265 L15.798913,12.4987952 L17.4446332,12.4987952 L17.4446332,12.4987952 Z M21.0652174,1.31566265 L19.4194973,1.31566265 L19.4194973,12.4987952 L21.0652174,12.4987952 L21.0652174,1.31566265 Z" id="Shape" fill="#9F9F9F"></path>
                        <polygon id="Path" fill="#939393" points="19.4194973 12.4987952 17.4446332 12.4987952 15.798913 12.4987952 13.1657609 12.4987952 11.5200408 12.4987952 9.54517663 12.4987952 7.89945652 12.4987952 6.58288043 12.4987952 6.58288043 15.1301205 11.8491848 15.1301205 17.1154891 15.1301205 22.3817935 15.1301205 22.3817935 12.4987952 21.0652174 12.4987952"></polygon>
                        <path d="M19.4194973,1.31566265 L21.0652174,1.31566265 L21.0652174,12.4987952 L22.3817935,12.4987952 L22.3817935,15.1301205 L23.6983696,16.4457831 L23.6983696,14.5709639 L23.6983696,12.4987952 C23.6983696,12.1260241 23.5776834,11.8190361 23.3363111,11.5778313 C23.0729959,11.3146988 22.7548234,11.1831325 22.3817935,11.1831325 L22.3817935,1.31566265 C22.3817935,0.942891566 22.2611073,0.635903614 22.0197351,0.394698795 C21.7564198,0.131566265 21.4382473,0 21.0652174,0 L15.798913,0 C15.4258832,0 15.1186821,0.131566265 14.8773098,0.394698795 C14.6181089,0.632134789 14.4864513,0.91719503 14.482337,1.24987952 C14.4785655,0.91719503 14.3578794,0.632134789 14.1202785,0.394698795 C13.8569633,0.131566265 13.5387908,0 13.1657609,0 L7.89945652,0 C7.52642663,0 7.21922554,0.131566265 6.97785326,0.394698795 C6.71453804,0.635903614 6.58288043,0.942891566 6.58288043,1.31566265 L6.58288043,11.1831325 C6.20985054,11.1831325 5.90264946,11.3146988 5.66127717,11.5778313 C5.39796196,11.8190361 5.26630435,12.1260241 5.26630435,12.4987952 L5.26630435,14.5709639 L5.26630435,16.4457831 L6.58288043,15.1301205 L6.58288043,12.4987952 L7.89945652,12.4987952 L7.89945652,1.31566265 L9.54517663,1.31566265 L11.5200408,1.31566265 L13.1657609,1.31566265 L13.1657609,12.4987952 L15.798913,12.4987952 L15.798913,1.31566265 L17.4446332,1.31566265 L19.4194973,1.31566265 Z" id="Path" fill="#727272"></path>
                    </g>
                </g>
            </g>
        </g>
    </g>
</svg>