<?xml version="1.0" encoding="UTF-8"?>
<svg width="323px" height="418px" viewBox="0 0 323 418" version="1.1" xmlns="http://www.w3.org/2000/svg" xmlns:xlink="http://www.w3.org/1999/xlink">
    <!-- Generator: Sketch 53.2 (72643) - https://sketchapp.com -->
    <title>Group</title>
    <desc>Created with Sketch.</desc>
    <defs>
        <path d="M84,142 L240,142 L240,110 C240,66.9217895 205.07821,32 162,32 C118.92179,32 84,66.9217895 84,110 L84,142 Z M53,142 L49,142 L49,100 C49,44.771525 93.771525,6.76353751e-15 149,0 L162,0 L175,0 C230.228475,-1.01453063e-14 275,44.771525 275,100 L275,142 L270,142 C299.271092,142 323,165.728908 323,195 L323,365 C323,394.271092 299.271092,418 270,418 L53,418 C23.7289083,418 1.79233744e-15,394.271092 0,365 L0,195 C-3.58467488e-15,165.728908 23.7289083,142 53,142 Z M144,300.032516 L144,334.5 C144,344.164983 151.835017,352 161.5,352 C171.164983,352 179,344.164983 179,334.5 L179.000001,299.657825 C197.155854,292.629715 210,275.284202 210,255 C210,228.490332 188.061953,207 161,207 C133.938047,207 112,228.490332 112,255 C112,275.654649 125.317571,293.262291 144,300.032516 Z" id="path-1"></path>
        <path d="M241,152 L241,122 C241,78.9217895 206.07821,44 163,44 C119.92179,44 85,78.9217895 85,122 L85,152 L241,152 Z M50,153.606039 L50,112 C50,56.771525 94.771525,12 150,12 L163,12 L176,12 C231.228475,12 276,56.771525 276,112 L276,152 L280,152 C309.271092,152 333,175.728908 333,205 L333,375 C333,404.271092 309.271092,428 280,428 L63,428 C33.7289083,428 10,404.271092 10,375 L10,205 C10,180.214184 27.013997,159.4022 50,153.606039 Z M154,310.032516 L154,344.5 C154,354.164983 161.835017,362 171.5,362 C181.164983,362 189,354.164983 189,344.5 L189.000001,309.657825 C207.155854,302.629715 220,285.284202 220,265 C220,238.490332 198.061953,217 171,217 C143.938047,217 122,238.490332 122,265 C122,285.654649 135.317571,303.262291 154,310.032516 Z" id="path-3"></path>
        <filter x="-2.2%" y="-1.2%" width="104.3%" height="103.4%" filterUnits="objectBoundingBox" id="filter-4">
            <feOffset dx="0" dy="2" in="SourceAlpha" result="shadowOffsetOuter1"></feOffset>
            <feGaussianBlur stdDeviation="2" in="shadowOffsetOuter1" result="shadowBlurOuter1"></feGaussianBlur>
            <feColorMatrix values="0 0 0 0 0   0 0 0 0 0   0 0 0 0 0  0 0 0 0.5 0" type="matrix" in="shadowBlurOuter1"></feColorMatrix>
        </filter>
    </defs>
    <g id="Page-1" stroke="none" stroke-width="1" fill="none" fill-rule="evenodd">
        <g id="Artboard" transform="translate(-2101.000000, -1934.000000)">
            <g id="Group" transform="translate(2101.000000, 1934.000000)">
                <g id="Combined-Shape">
                    <mask id="mask-2" fill="white">
                        <use xlink:href="#path-1"></use>
                    </mask>
                    <use id="Mask" fill="#F72F20" xlink:href="#path-1"></use>
                    <g opacity="0.168759301" mask="url(#mask-2)">
                        <use fill="black" fill-opacity="1" filter="url(#filter-4)" xlink:href="#path-3"></use>
                        <use fill="#000000" fill-rule="evenodd" xlink:href="#path-3"></use>
                    </g>
                </g>
                <path d="M240,142 L240,110 C240,66.9217895 205.07821,32 162,32 C118.92179,32 84,66.9217895 84,110 L84,142 L49,142 L49,100 C49,44.771525 93.771525,6.76353751e-15 149,0 L162,0 L175,0 C230.228475,-1.01453063e-14 275,44.771525 275,100 L275,142 L240,142 Z" id="Combined-Shape" fill="#474747"></path>
            </g>
        </g>
    </g>
</svg>