<?xml version="1.0" encoding="UTF-8"?>
<svg width="86px" height="71px" viewBox="0 0 86 71" version="1.1" xmlns="http://www.w3.org/2000/svg" xmlns:xlink="http://www.w3.org/1999/xlink">
    <!-- Generator: Sketch 53.2 (72643) - https://sketchapp.com -->
    <title>Group 2</title>
    <desc>Created with Sketch.</desc>
    <g id="Page-1" stroke="none" stroke-width="1" fill="none" fill-rule="evenodd">
        <g id="Artboard" transform="translate(-261.000000, -455.000000)" fill="#D8D8D8">
            <g id="Group-2" transform="translate(261.000000, 452.000000)">
                <path d="M31.5230508,4.39708072 L82.5998729,34.250516 C84.9839407,35.6439585 85.7870011,38.7062356 84.3935587,41.0903034 C83.9583265,41.8349505 83.3378675,42.4543478 82.592476,42.888304 L31.5156539,72.6244945 C29.1292031,74.0138518 26.0683059,73.2055478 24.6789486,70.819097 C24.2342715,70.0552906 24,69.1872632 24,68.3034431 L24,8.7138173 C24,5.95239355 26.2385763,3.7138173 29,3.7138173 C29.8867249,3.7138173 30.7574992,3.94963033 31.5230508,4.39708072 Z" id="Rectangle"></path>
                <path d="M7.52305079,4.39708072 L58.5998729,34.250516 C60.9839407,35.6439585 61.7870011,38.7062356 60.3935587,41.0903034 C59.9583265,41.8349505 59.3378675,42.4543478 58.592476,42.888304 L7.51565393,72.6244945 C5.12920313,74.0138518 2.06830588,73.2055478 0.678948586,70.819097 C0.234271483,70.0552906 1.08236746e-16,69.1872632 0,68.3034431 L8.8817842e-16,8.7138173 C1.77632003e-15,5.95239355 2.23857625,3.7138173 5,3.7138173 C5.88672489,3.7138173 6.75749923,3.94963033 7.52305079,4.39708072 Z" id="Rectangle" opacity="0.6"></path>
            </g>
        </g>
    </g>
</svg>