<?xml version="1.0" encoding="UTF-8"?>
<svg width="9px" height="23px" viewBox="0 0 9 23" version="1.1" xmlns="http://www.w3.org/2000/svg" xmlns:xlink="http://www.w3.org/1999/xlink">
    <!-- Generator: Sketch 53.2 (72643) - https://sketchapp.com -->
    <title>Group</title>
    <desc>Created with Sketch.</desc>
    <g id="Page-1" stroke="none" stroke-width="1" fill="none" fill-rule="evenodd">
        <g id="Group" transform="translate(4.500000, 11.500000) rotate(180.000000) translate(-4.500000, -11.500000) " fill-rule="nonzero">
            <path d="M3.5918406,20.5680415 L3.49309739,19.2523789 L3.49309739,19.1537042 L3.16395337,14.4831018 C2.6812088,15.7987644 2.26429304,17.4871981 1.91320609,19.548403 L3.5918406,20.5680415 L3.5918406,20.5680415 Z M5.99459196,19.1537042 L5.99459196,19.2523789 L5.89584875,20.5680415 L7.57448326,19.548403 C7.2233963,17.4871981 6.80648054,15.7987644 6.32373598,14.4831018 L5.99459196,19.1537042 L5.99459196,19.1537042 Z M4.74384467,1.52382465 C3.49309739,2.8394873 2.81286641,4.92261983 2.70315174,7.77322224 L6.78453761,7.77322224 C6.67482293,4.92261983 5.99459196,2.8394873 4.74384467,1.52382465 Z" id="Shape" fill="#E74C3C"></path>
            <path d="M7.14659603,21.6863548 L7.17951043,21.3574391 L5.89584875,20.5680415 L5.83001995,21.5876801 L3.6576694,21.5876801 L3.5918406,20.5680415 L2.34109332,21.3574391 L2.34109332,21.6863548 C2.36303625,22.0152704 2.50566533,22.3003307 2.76898054,22.5415355 C3.01035283,22.7827403 3.30658245,22.9033427 3.6576694,22.9033427 L5.83001995,22.9033427 C6.1811069,22.9033427 6.48830799,22.7827403 6.75162321,22.5415355 C6.99299549,22.3003307 7.1246531,22.0152704 7.14659603,21.6863548 L7.14659603,21.6863548 Z M8.1011137,7.77322224 L6.78453761,7.77322224 L6.32373598,14.4831018 L7.67322647,14.3186439 L8.1011137,7.87189694 C8.1011137,7.82804152 8.1011137,7.79514995 8.1011137,7.77322224 L8.1011137,7.77322224 Z M2.70315174,7.77322224 L1.38657565,7.77322224 C1.38657565,7.79514995 1.38657565,7.82804152 1.38657565,7.87189694 L1.84737728,14.3186439 L3.16395337,14.4831018 L2.70315174,7.77322224 Z" id="Shape" fill="#809395"></path>
            <path d="M7.67322647,14.3186439 L6.32373598,14.4831018 C6.80648054,15.7987644 7.2233963,17.4871981 7.57448326,19.548403 L5.89584875,20.5680415 L7.17951043,21.3574391 L8.26568571,20.6667162 C8.48511505,20.53515 8.66065853,20.3487644 8.79231614,20.1075596 C8.90203082,19.8444271 8.93494522,19.5922584 8.89105935,19.3510536 C8.53997239,17.3337042 8.1340281,15.6562343 7.67322647,14.3186439 L7.67322647,14.3186439 Z M3.16395337,14.4831018 L1.84737728,14.3186439 C1.36463272,15.6562343 0.958688424,17.3337042 0.629544402,19.3510536 C0.563715598,19.5922584 0.59663,19.8444271 0.728287609,20.1075596 C0.838002283,20.3487644 1.00257429,20.53515 1.22200364,20.6667162 L2.34109332,21.3574391 L3.5918406,20.5680415 L1.91320609,19.548403 C2.26429304,17.4871981 2.6812088,15.7987644 3.16395337,14.4831018 L3.16395337,14.4831018 Z M4.41470065,0.273945132 C4.17332837,0.317800554 3.96487049,0.438402964 3.78932701,0.635752361 C2.31915038,2.10490899 1.51823326,4.47310176 1.38657565,7.74033067 L1.38657565,7.77322224 L2.70315174,7.77322224 C2.81286641,4.92261983 3.49309739,2.8394873 4.74384467,1.52382465 C5.99459196,2.8394873 6.67482293,4.92261983 6.78453761,7.77322224 L8.1011137,7.77322224 L8.1011137,7.74033067 C7.96945609,4.47310176 7.16853897,2.10490899 5.69836234,0.635752361 C5.52281886,0.438402964 5.32533245,0.317800554 5.1059031,0.273945132 C4.86453082,0.208162 4.63413,0.208162 4.41470065,0.273945132 Z" id="Shape" fill="#AF392D"></path>
            <polygon id="Path" fill="#BDD6DB" points="2.70315174 7.77322224 3.16395337 14.4831018 3.49309739 19.1537042 3.49309739 19.2523789 3.5918406 20.5680415 3.6576694 21.5876801 5.83001995 21.5876801 5.89584875 20.5680415 5.99459196 19.2523789 5.99459196 19.1537042 6.32373598 14.4831018 6.78453761 7.77322224"></polygon>
        </g>
    </g>
</svg>