<?xml version="1.0" encoding="UTF-8"?>
<svg width="19px" height="19px" viewBox="0 0 19 19" version="1.1" xmlns="http://www.w3.org/2000/svg" xmlns:xlink="http://www.w3.org/1999/xlink">
    <!-- Generator: Sketch 53.2 (72643) - https://sketchapp.com -->
    <title>Group30</title>
    <desc>Created with Sketch.</desc>
    <g id="Page-1" stroke="none" stroke-width="1" fill="none" fill-rule="evenodd">
        <g id="Group30" transform="translate(9.500000, 9.500000) rotate(90.000000) translate(-9.500000, -9.500000) " fill-rule="nonzero">
            <g id="Group-2" transform="translate(1.000000, 0.000000)">
                <g id="Group" transform="translate(0.000000, 2.000000)" fill="#000000" fill-opacity="0.101960784">
                    <g id="Layer0_287_MEMBER_0_FILL-link">
                        <g id="Layer0_287_MEMBER_0_FILL">
                            <path d="M15.5026834,5.8546988 C14.9321671,3.77156627 13.7143342,2.19277108 11.8491848,1.11831325 C9.96209239,0.0219277108 7.96528533,-0.252168675 5.85876359,0.296024096 C3.77418478,0.866144578 2.18332201,2.09409639 1.08617527,3.97987952 C0.0109714674,5.86566265 -0.241372283,7.86108434 0.329144022,9.96614458 C0.877717391,12.0492771 2.09555027,13.6390361 3.98264266,14.7354217 C5.84779212,15.8098795 7.83362772,16.073012 9.94014946,15.5248193 C12.0466712,14.9766265 13.637534,13.7596386 14.7127378,11.8738554 C15.8098845,9.96614458 16.0731997,7.95975904 15.5026834,5.8546988 Z" id="Path"></path>
                        </g>
                    </g>
                </g>
                <g id="Group" transform="translate(1.000000, 0.000000)">
                    <g id="Layer0_287_MEMBER_1_FILL-link">
                        <g id="Layer0_287_MEMBER_1_FILL">
                            <path d="M10.5655231,1.05253012 C9.90723505,0.482409639 9.1502038,0.197349398 8.29442935,0.197349398 L7.07659647,0.197349398 C6.22082201,0.197349398 5.46379076,0.493373494 4.80550272,1.08542169 L4.77258832,1.11831325 C4.15818614,1.66650602 3.77418478,2.37915663 3.62058424,3.25626506 C3.5986413,3.30012048 3.58766984,3.35493976 3.58766984,3.42072289 L3.58766984,3.61807229 L2.66606658,3.61807229 C1.26171875,3.61807229 0.559544837,4.31975904 0.559544837,5.72313253 L0.559544837,12.9263855 C0.559544837,13.8473494 0.877717391,14.4503614 1.5140625,14.7354217 C1.82126359,14.9327711 2.20526495,15.0314458 2.66606658,15.0314458 L3.58766984,15.0314458 L3.58766984,15.0643373 C3.58766984,15.0862651 3.5986413,15.1191566 3.62058424,15.163012 C3.77418478,16.0181928 4.15818614,16.7198795 4.77258832,17.2680723 C5.34310462,17.8162651 5.97944973,18.123253 6.68162364,18.1890361 C6.81328125,18.2109639 6.94493886,18.2219277 7.07659647,18.2219277 L8.29442935,18.2219277 C8.46997283,18.2219277 8.65648777,18.2 8.85397418,18.1561446 L8.72231658,18.1890361 C9.44643342,18.123253 10.09375,17.8162651 10.6642663,17.2680723 L10.5984375,17.3009639 C11.3006114,16.6650602 11.6846128,15.9304819 11.7504416,15.0972289 L11.9808424,14.0775904 C12.0027853,14.0118072 12.0137568,13.956988 12.0137568,13.9131325 C12.0137568,13.8692771 12.0247283,13.8363855 12.0466712,13.8144578 C12.1125,13.4416867 12.1673573,13.0689157 12.2112432,12.6961446 C12.6939878,12.0821687 13.0231318,11.4024096 13.1986753,10.6568675 C14.2080503,9.53855422 14.1641644,8.44216867 13.0670177,7.36771084 L12.9682745,7.26903614 C12.792731,6.80855422 12.5513587,6.38096386 12.2441576,5.98626506 C12.1783288,5.43807229 12.1015285,4.91180723 12.0137568,4.40746988 C11.9918139,4.38554217 11.9808424,4.36361446 11.9808424,4.34168675 L11.7504416,3.32204819 C11.6846128,2.55457831 11.3774117,1.88578313 10.8288383,1.31566265 C10.7410666,1.2060241 10.6532948,1.11831325 10.5655231,1.05253012 L10.5655231,1.05253012 Z M8.29442935,1.51301205 C8.82105978,1.51301205 9.29283288,1.68843373 9.70974864,2.03927711 L9.70974864,2.07216867 C10.1486073,2.46686747 10.3899796,2.93831325 10.4338655,3.48650602 L10.6642663,4.47325301 L10.6971807,4.63771084 C10.8068954,5.25168675 10.9056386,5.87662651 10.9934103,6.51253012 C11.3883832,6.97301205 11.6736413,7.4773494 11.8491848,8.02554217 L12.1125,8.2886747 C12.6391304,8.81493976 12.628159,9.35216867 12.0795856,9.90036145 L11.9808424,9.99903614 C11.8491848,10.8322892 11.4980978,11.5449398 10.9275815,12.136988 C10.8836957,12.6193976 10.8178668,13.1018072 10.7300951,13.5842169 C10.7081522,13.65 10.6971807,13.7157831 10.6971807,13.7815663 L10.5984375,14.3078313 L10.4338655,14.9327711 C10.3899796,15.4590361 10.1486073,15.9195181 9.70974864,16.3142169 C9.38060462,16.6431325 9.00757473,16.8295181 8.59065897,16.8733735 C8.48094429,16.8953012 8.38220109,16.9062651 8.29442935,16.9062651 L7.07659647,16.9062651 C6.98882473,16.9062651 6.90105299,16.8953012 6.81328125,16.8733735 C6.39636549,16.8295181 6.01236413,16.6431325 5.66127717,16.3142169 C5.26630435,15.9414458 5.0139606,15.47 4.90424592,14.8998795 L4.87133152,14.3078313 L4.77258832,13.7157831 L2.66606658,13.7157831 C2.46858016,13.7157831 2.30400815,13.6719277 2.17235054,13.5842169 C1.97486413,13.4745783 1.87612092,13.2553012 1.87612092,12.9263855 L1.87612092,5.72313253 C1.87612092,5.19686747 2.13943614,4.93373494 2.66606658,4.93373494 L4.77258832,4.93373494 L4.80550272,4.47325301 L4.90424592,3.51939759 L4.90424592,3.48650602 C5.0139606,2.91638554 5.26630435,2.44493976 5.66127717,2.07216867 C6.07819293,1.69939759 6.54996603,1.51301205 7.07659647,1.51301205 L8.29442935,1.51301205 Z" id="Shape" fill="#1F8A4C"></path>
                            <path d="M6.81328125,16.8733735 C6.90105299,16.8953012 6.98882473,16.9062651 7.07659647,16.9062651 L8.29442935,16.9062651 C8.38220109,16.9062651 8.48094429,16.8953012 8.59065897,16.8733735 C9.00757473,16.8295181 9.38060462,16.6431325 9.70974864,16.3142169 C10.1486073,15.9195181 10.3899796,15.4590361 10.4338655,14.9327711 L10.5984375,14.3078313 C8.68940217,14.9656627 6.78036685,14.9656627 4.87133152,14.3078313 L4.90424592,14.8998795 C5.0139606,15.47 5.26630435,15.9414458 5.66127717,16.3142169 C6.01236413,16.6431325 6.39636549,16.8295181 6.81328125,16.8733735 L6.81328125,16.8733735 Z M8.32734375,5.19686747 C8.59065897,5.30650602 8.83203125,5.47096386 9.0514606,5.69024096 C9.1172894,5.73409639 9.17214674,5.81084337 9.21603261,5.92048193 L9.24894701,5.95337349 C9.92917799,8.19 9.89626359,10.4266265 9.1502038,12.663253 C9.1502038,12.7071084 9.13923234,12.74 9.1172894,12.7619277 C9.07340353,12.8057831 9.04048913,12.8496386 9.0185462,12.893494 C8.71134511,13.1346988 8.39317255,13.3210843 8.06402853,13.4526506 C7.86654212,13.5184337 7.68002717,13.5622892 7.5044837,13.5842169 C7.46059783,13.5842169 7.42768342,13.5951807 7.40574049,13.6171084 C7.51545516,13.6171084 7.62516984,13.6171084 7.73488451,13.6171084 C7.88848505,13.6171084 8.03111413,13.6061446 8.16277174,13.5842169 C8.40414402,13.5622892 8.6455163,13.5184337 8.88688859,13.4526506 C9.30380435,13.3210843 9.68780571,13.1346988 10.0388927,12.893494 C10.1047215,12.8496386 10.1595788,12.8057831 10.2034647,12.7619277 C10.2254076,12.74 10.2363791,12.7071084 10.2363791,12.663253 C11.1799253,10.4266265 11.2128397,8.19 10.3351223,5.95337349 L10.3351223,5.92048193 C10.2692935,5.81084337 10.2034647,5.73409639 10.1376359,5.69024096 C9.83043478,5.47096386 9.51226223,5.30650602 9.18311821,5.19686747 L9.1502038,5.19686747 C9.06243207,5.15301205 8.97466033,5.10915663 8.88688859,5.0653012 L8.88688859,5.13108434 C8.6455163,5.02144578 8.40414402,4.96662651 8.16277174,4.96662651 C8.03111413,4.9446988 7.88848505,4.93373494 7.73488451,4.93373494 C7.60562691,4.93373494 7.48494077,4.93373494 7.37282609,4.93373494 C7.41876911,4.9347628 7.46265498,4.94572666 7.5044837,4.96662651 C7.70197011,4.96662651 7.88848505,5.02144578 8.06402853,5.13108434 L8.06402853,5.0653012 C8.15180027,5.10915663 8.22860054,5.15301205 8.29442935,5.19686747 L8.32734375,5.19686747 L8.32734375,5.19686747 Z M9.70974864,2.03927711 C9.29283288,1.68843373 8.82105978,1.51301205 8.29442935,1.51301205 L7.07659647,1.51301205 C6.54996603,1.51301205 6.07819293,1.69939759 5.66127717,2.07216867 C5.26630435,2.44493976 5.0139606,2.91638554 4.90424592,3.48650602 L4.90424592,3.51939759 L4.80550272,4.47325301 C6.75842391,3.81542169 8.68940217,3.81542169 10.5984375,4.47325301 L10.6642663,4.47325301 L10.4338655,3.48650602 C10.3899796,2.93831325 10.1486073,2.46686747 9.70974864,2.07216867 L9.70974864,2.03927711 Z" id="Shape" fill="#2ECC71"></path>
                            <path d="M7.27408288,13.5842169 C7.0327106,13.5622892 6.81328125,13.5403614 6.61579484,13.5184337 C6.06722147,13.3868675 5.57350543,13.2004819 5.13464674,12.9592771 C4.95910326,12.8496386 4.80550272,12.74 4.67384511,12.6303614 L4.77258832,13.7157831 L4.87133152,14.3078313 C6.78036685,14.9656627 8.68940217,14.9656627 10.5984375,14.3078313 L10.6971807,13.7815663 C10.6971807,13.7157831 10.7081522,13.65 10.7300951,13.5842169 C10.8178668,13.1018072 10.8836957,12.6193976 10.9275815,12.136988 C10.9056386,12.1808434 10.8727242,12.2137349 10.8288383,12.2356627 C10.6313519,12.433012 10.422894,12.6084337 10.2034647,12.7619277 C10.1595788,12.8057831 10.1047215,12.8496386 10.0388927,12.893494 C9.68780571,13.1346988 9.30380435,13.3210843 8.88688859,13.4526506 C8.6455163,13.5184337 8.40414402,13.5622892 8.16277174,13.5842169 C8.03111413,13.6061446 7.88848505,13.6171084 7.73488451,13.6171084 C7.62516984,13.6171084 7.51545516,13.6171084 7.40574049,13.6171084 C7.36185462,13.5951807 7.31796875,13.5842169 7.27408288,13.5842169 L7.27408288,13.5842169 Z M10.6971807,4.63771084 L10.6642663,4.47325301 L10.5984375,4.47325301 C8.68940217,3.81542169 6.75842391,3.81542169 4.80550272,4.47325301 L4.77258832,4.93373494 L4.6080163,5.92048193 C4.76161685,5.81084337 4.91521739,5.71216867 5.06881793,5.62445783 C5.50767663,5.3613253 5.9904212,5.17493976 6.51705163,5.0653012 C6.78036685,4.99951807 7.05465353,4.95566265 7.33991168,4.93373494 L7.37282609,4.93373494 C7.48494077,4.93373494 7.60562691,4.93373494 7.73488451,4.93373494 C7.88848505,4.93373494 8.03111413,4.9446988 8.16277174,4.96662651 C8.40414402,4.96662651 8.6455163,5.02144578 8.88688859,5.13108434 L8.88688859,5.0653012 C8.97466033,5.10915663 9.06243207,5.15301205 9.1502038,5.19686747 L9.18311821,5.19686747 C9.51226223,5.30650602 9.83043478,5.47096386 10.1376359,5.69024096 C10.2034647,5.73409639 10.2692935,5.81084337 10.3351223,5.92048193 L10.3351223,5.95337349 C10.5106658,6.06301205 10.6752378,6.20554217 10.8288383,6.38096386 C10.8727242,6.42481928 10.9275815,6.4686747 10.9934103,6.51253012 C10.9056386,5.87662651 10.8068954,5.25168675 10.6971807,4.63771084 Z" id="Shape" fill="#9F6D39"></path>
                            <path d="M2.66606658,4.93373494 C2.13943614,4.93373494 1.87612092,5.19686747 1.87612092,5.72313253 L1.87612092,12.9263855 C1.87612092,13.2553012 1.97486413,13.4745783 2.17235054,13.5842169 C2.30400815,13.6719277 2.46858016,13.7157831 2.66606658,13.7157831 L4.77258832,13.7157831 L4.67384511,12.6303614 C4.56413043,12.5645783 4.46538723,12.4878313 4.37761549,12.4001205 C3.41212636,11.5887952 2.92938179,10.5910843 2.92938179,9.40698795 C2.92938179,9.36313253 2.92938179,9.31927711 2.92938179,9.27542169 C2.92938179,9.20963855 2.92938179,9.15481928 2.92938179,9.11096386 C2.92938179,7.92686747 3.41212636,6.92915663 4.37761549,6.11783133 C4.46538723,6.05204819 4.5421875,5.98626506 4.6080163,5.92048193 L4.77258832,4.93373494 L2.66606658,4.93373494 Z" id="Path" fill="#C48647"></path>
                            <path d="M10.9934103,6.51253012 C10.9275815,6.4686747 10.8727242,6.42481928 10.8288383,6.38096386 C10.6752378,6.20554217 10.5106658,6.06301205 10.3351223,5.95337349 C11.2128397,8.19 11.1799253,10.4266265 10.2363791,12.663253 C10.2363791,12.7071084 10.2254076,12.74 10.2034647,12.7619277 C10.422894,12.6084337 10.6313519,12.433012 10.8288383,12.2356627 C10.8727242,12.2137349 10.9056386,12.1808434 10.9275815,12.136988 C11.4980978,11.5449398 11.8491848,10.8322892 11.9808424,9.99903614 L12.0795856,9.90036145 C12.628159,9.35216867 12.6391304,8.81493976 12.1125,8.2886747 L11.8491848,8.02554217 C11.6736413,7.4773494 11.3883832,6.97301205 10.9934103,6.51253012 Z" id="Path" fill="#FFD0A3"></path>
                            <path d="M9.0514606,5.69024096 C8.83203125,5.47096386 8.59065897,5.30650602 8.32734375,5.19686747 L8.29442935,5.19686747 C8.22860054,5.15301205 8.15180027,5.10915663 8.06402853,5.0653012 L8.06402853,5.13108434 C7.88848505,5.02144578 7.70197011,4.96662651 7.5044837,4.96662651 C7.46265498,4.94572666 7.41876911,4.9347628 7.37282609,4.93373494 L7.33991168,4.93373494 C7.05465353,4.95566265 6.78036685,4.99951807 6.51705163,5.0653012 C5.9904212,5.17493976 5.50767663,5.3613253 5.06881793,5.62445783 C4.91521739,5.71216867 4.76161685,5.81084337 4.6080163,5.92048193 C4.5421875,5.98626506 4.46538723,6.05204819 4.37761549,6.11783133 C3.41212636,6.92915663 2.92938179,7.92686747 2.92938179,9.11096386 C2.92938179,9.15481928 2.92938179,9.20963855 2.92938179,9.27542169 C2.92938179,9.31927711 2.92938179,9.36313253 2.92938179,9.40698795 C2.92938179,10.5910843 3.41212636,11.5887952 4.37761549,12.4001205 C4.46538723,12.4878313 4.56413043,12.5645783 4.67384511,12.6303614 C4.80550272,12.74 4.95910326,12.8496386 5.13464674,12.9592771 C5.57350543,13.2004819 6.06722147,13.3868675 6.61579484,13.5184337 C6.81328125,13.5403614 7.0327106,13.5622892 7.27408288,13.5842169 C7.31796875,13.5842169 7.36185462,13.5951807 7.40574049,13.6171084 C7.42768342,13.5951807 7.46059783,13.5842169 7.5044837,13.5842169 C7.68002717,13.5622892 7.86654212,13.5184337 8.06402853,13.4526506 C8.39317255,13.3210843 8.71134511,13.1346988 9.0185462,12.893494 C9.04048913,12.8496386 9.07340353,12.8057831 9.1172894,12.7619277 C9.13923234,12.74 9.1502038,12.7071084 9.1502038,12.663253 C9.89626359,10.4266265 9.92917799,8.19 9.24894701,5.95337349 L9.21603261,5.92048193 C9.17214674,5.81084337 9.1172894,5.73409639 9.0514606,5.69024096 Z" id="Path" fill="#2ABB67"></path>
                        </g>
                    </g>
                </g>
            </g>
            <rect id="Rectangle" fill-opacity="0.01" fill="#FFFFFF" opacity="0.2" x="0" y="0" width="19" height="19"></rect>
        </g>
    </g>
</svg>