<?xml version="1.0" encoding="UTF-8"?>
<svg width="50px" height="50px" viewBox="0 0 50 50" version="1.1" xmlns="http://www.w3.org/2000/svg" xmlns:xlink="http://www.w3.org/1999/xlink">
    <!-- Generator: Sketch 53.2 (72643) - https://sketchapp.com -->
    <title>Group 3</title>
    <desc>Created with Sketch.</desc>
    <g id="Page-1" stroke="none" stroke-width="1" fill="none" fill-rule="evenodd">
        <g id="Artboard" transform="translate(-324.000000, -980.000000)">
            <g id="Group-3" transform="translate(324.000000, 980.000000)">
                <rect id="Rectangle" fill-opacity="0.01" fill="#FFFFFF" opacity="0.2" x="0" y="0" width="50" height="50"></rect>
                <g id="Group" transform="translate(14.000000, 0.000000)" fill-rule="nonzero">
                    <path d="M6.2225,5.15 L6.2225,4.75 C6.2225,3.45 6.65583333,2.35 7.5225,1.45 L7.5725,1.4 C8.4725,0.466666667 9.58916667,-8.52651283e-14 10.9225,-8.52651283e-14 C12.2225,-8.52651283e-14 13.3391667,0.466666667 14.2725,1.4 C15.1725,2.3 15.6225,3.41666667 15.6225,4.75 L15.6225,5.15 L15.6225,7.7 L13.6225,6.15 L13.6225,4.75 C13.6225,3.98333333 13.3558333,3.33333333 12.8225,2.8 C12.2891667,2.26666667 11.6558333,2 10.9225,2 C10.1558333,2 9.50583333,2.26666667 8.9725,2.8 C8.4725,3.33333333 8.2225,3.98333333 8.2225,4.75 L8.2225,6.15 L6.2725,7.6 L6.2225,5.15" id="Path" fill="#3A3535"></path>
                    <path d="M6.2225,5.15 L6.2725,7.6 L4.3725,9 C3.2725,9.73333333 2.60583333,11.55 2.3725,14.45 C2.80583333,14.95 3.13916667,16.3833333 3.3725,18.75 L2.3725,19.3 C2.00583333,19.5 1.93916667,19.7833333 2.1725,20.15 L2.8225,21.35 C2.98916667,21.6833333 3.23916667,21.7666667 3.5725,21.6 L3.6225,22.4 L4.8225,22.4 L4.7725,22.95 L4.7725,23.5 C4.4725,26.8333333 4.45583333,30.2333333 4.7225,33.7 L4.2225,34.45 C3.9225,35.05 3.8725,35.6666667 4.0725,36.3 C5.4725,41.2666667 7.05583333,44.6333333 8.8225,46.4 C9.48916667,47.0333333 10.1891667,47.45 10.9225,47.65 C11.6225,47.45 12.3058333,47.0333333 12.9725,46.4 C14.7391667,44.6333333 16.3225,41.2666667 17.7225,36.3 C17.9558333,35.6666667 17.9225,35.05 17.6225,34.45 L17.1225,33.7 C17.4558333,29.8666667 17.4225,26.1 17.0225,22.4 L18.2225,22.4 L18.2725,21.65 C18.6058333,21.7833333 18.8558333,21.6833333 19.0225,21.35 L19.6725,20.15 C19.8725,19.7833333 19.8058333,19.5 19.4725,19.3 L18.4725,18.75 C18.7058333,16.3833333 19.0391667,14.95 19.4725,14.45 C19.2058333,11.55 18.5058333,9.73333333 17.3725,9 L15.6225,7.7 L15.6225,5.15 L18.5725,7.4 C20.1725,8.33333333 21.1391667,10.6333333 21.4725,14.3 L21.3725,15.05 L20.9725,15.75 L20.6225,17.65 C21.9558333,18.45 22.2225,19.6 21.4225,21.1 L20.7725,22.3 L20.8225,22.25 L20.0225,23.35 L19.6725,23.85 L19.2225,24.15 C19.4225,27.1166667 19.4058333,30.1333333 19.1725,33.2 L19.2725,33.3 L19.4225,33.55 C19.9558333,34.6166667 20.0391667,35.7166667 19.6725,36.85 L19.6225,36.95 L19.6225,37 C18.0891667,42.3333333 16.3558333,45.95 14.4225,47.85 L14.3725,47.85 C13.4391667,48.75 12.4725,49.3333333 11.4725,49.6 L10.4225,49.6 C9.35583333,49.3333333 8.3725,48.75 7.4725,47.85 L7.4225,47.85 C5.4225,45.9166667 3.6725,42.25 2.1725,36.85 L2.1725,36.9 C1.80583333,35.7666667 1.88916667,34.65 2.4225,33.55 L2.5225,33.45 L2.6725,33.15 C2.4725,30.1166667 2.48916667,27.1333333 2.7225,24.2 L2.2225,23.85 L1.8725,23.35 L1.0225,22.25 L1.0725,22.3 L0.4725,21.15 L0.4225,21.1 C-0.0108333333,20.4 -0.110833333,19.7666667 0.1225,19.2 C0.189166667,18.6 0.5725,18.0833333 1.2725,17.65 L0.8725,15.75 C0.505833333,15.3166667 0.339166667,14.8333333 0.3725,14.3 C0.6725,10.5333333 1.63916667,8.21666667 3.2725,7.35 L6.2225,5.15" id="Path" fill="#9F4910"></path>
                    <path d="M3.5725,21.6 C3.23916667,21.7666667 2.98916667,21.6833333 2.8225,21.35 L2.1725,20.15 C1.93916667,19.7833333 2.00583333,19.5 2.3725,19.3 L3.3725,18.75 L6.6725,16.85 L6.6225,17.4 C6.65583333,18.3666667 6.8725,19.0333333 7.2725,19.4 L7.3725,19.5 L7.0725,19.6 L3.6725,21.55 L3.5725,21.6 M4.7725,23.5 C4.7725,25.0333333 5.55583333,26.9833333 7.1225,29.35 L6.5225,31.3 L6.4725,31.35 L4.9725,33.3 L4.7225,33.7 C4.45583333,30.2333333 4.4725,26.8333333 4.7725,23.5 M14.7725,29.35 C16.4725,26.6833333 17.2225,24.55 17.0225,22.95 L17.0225,22.4 C17.4225,26.1 17.4558333,29.8666667 17.1225,33.7 L16.8725,33.3 L15.3725,31.35 L15.3225,31.3 L14.7725,29.35 M14.7225,19.6 L14.4725,19.45 L14.5225,19.4 C14.9558333,19.0333333 15.1891667,18.3666667 15.2225,17.4 L15.1725,16.85 L18.4725,18.75 L19.4725,19.3 C19.8058333,19.5 19.8725,19.7833333 19.6725,20.15 L19.0225,21.35 C18.8558333,21.6833333 18.6058333,21.7833333 18.2725,21.65 L18.1225,21.55 L14.7225,19.6" id="Shape" fill="#201E1E"></path>
                    <path d="M14.7225,19.6 L18.1225,21.55 L18.2725,21.65 L18.2225,22.4 L17.0225,22.4 L16.9225,22.4 L14.7225,19.6 M6.2725,7.6 L8.2225,6.15 L9.4725,5.2 C10.5391667,4.56666667 11.5058333,4.56666667 12.3725,5.2 L13.6225,6.15 L15.6225,7.7 L17.3725,9 C18.5058333,9.73333333 19.2058333,11.55 19.4725,14.45 C19.0391667,14.95 18.7058333,16.3833333 18.4725,18.75 L15.1725,16.85 L14.9225,14.8 L13.6725,10.05 L13.6225,10 C12.9225,8.43333333 12.0225,7.55 10.9225,7.35 C9.8225,7.55 8.9225,8.43333333 8.2225,10 C7.88916667,10.7666667 7.58916667,11.7166667 7.3225,12.85 C7.05583333,13.9833333 6.83916667,15.3166667 6.6725,16.85 L3.3725,18.75 C3.13916667,16.3833333 2.80583333,14.95 2.3725,14.45 C2.60583333,11.55 3.2725,9.73333333 4.3725,9 L6.2725,7.6 M7.0725,19.6 L4.8725,22.4 L4.8225,22.4 L3.6225,22.4 L3.5725,21.6 L3.6725,21.55 L7.0725,19.6 M6.4725,31.35 L6.5225,31.3 L6.2725,32.6 C6.1725,33.1666667 6.20583333,33.6666667 6.3725,34.1 C6.63916667,34.6333333 7.18916667,35.0333333 8.0225,35.3 L10.9225,35.55 L13.8225,35.3 C14.6558333,35.0333333 15.2058333,34.6333333 15.4725,34.1 C15.6391667,33.6666667 15.6725,33.1666667 15.5725,32.6 L15.3225,31.3 L15.3725,31.35 C15.9725,32.3833333 16.2725,33.6666667 16.2725,35.2 L16.2225,36.15 C15.9891667,38.8833333 14.9058333,42.3 12.9725,46.4 C12.3058333,47.0333333 11.6225,47.45 10.9225,47.65 C10.1891667,47.45 9.48916667,47.0333333 8.8225,46.4 C6.95583333,42.3 5.90583333,38.9 5.6725,36.2 L5.6225,35.15 C5.58916667,33.6166667 5.8725,32.35 6.4725,31.35" id="Shape" fill="#E86A17"></path>
                    <path d="M4.7725,23.5 L4.7725,22.95 L4.8225,22.4 L4.8725,22.4 L7.0725,19.6 L7.3725,19.5 L8.2225,19.8 L13.5725,19.8 C13.9391667,19.8 14.2391667,19.6833333 14.4725,19.45 L14.7225,19.6 L16.9225,22.4 L17.0225,22.4 L17.0225,22.95 C17.2225,24.55 16.4725,26.6833333 14.7725,29.35 L14.1225,28.15 C13.7891667,27.5833333 13.3891667,27.1333333 12.9225,26.8 C11.5891667,25.9333333 10.2558333,25.9333333 8.9225,26.8 C8.45583333,27.1333333 8.05583333,27.5833333 7.7225,28.15 L7.1225,29.35 C5.55583333,26.9833333 4.7725,25.0333333 4.7725,23.5" id="Path" fill="#D96417"></path>
                    <path d="M14.4725,19.45 C14.2391667,19.6833333 13.9391667,19.8 13.5725,19.8 L8.2225,19.8 L7.3725,19.5 L7.2725,19.4 C6.8725,19.0333333 6.65583333,18.3666667 6.6225,17.4 L6.6725,16.85 C6.83916667,15.3166667 7.05583333,13.9833333 7.3225,12.85 C7.58916667,11.7166667 7.88916667,10.7666667 8.2225,10 C8.9225,8.43333333 9.8225,7.55 10.9225,7.35 C12.0225,7.55 12.9225,8.43333333 13.6225,10 L13.6725,10.05 L14.9225,14.8 L15.1725,16.85 L15.2225,17.4 C15.1891667,18.3666667 14.9558333,19.0333333 14.5225,19.4 L14.4725,19.45 M4.7225,33.7 L4.9725,33.3 L6.4725,31.35 C5.8725,32.35 5.58916667,33.6166667 5.6225,35.15 L5.6725,36.2 C5.90583333,38.9 6.95583333,42.3 8.8225,46.4 C7.05583333,44.6333333 5.4725,41.2666667 4.0725,36.3 C3.8725,35.6666667 3.9225,35.05 4.2225,34.45 L4.7225,33.7 M17.1225,33.7 L17.6225,34.45 C17.9225,35.05 17.9558333,35.6666667 17.7225,36.3 C16.3225,41.2666667 14.7391667,44.6333333 12.9725,46.4 C14.9058333,42.3 15.9891667,38.8833333 16.2225,36.15 L16.2725,35.2 C16.2725,33.6666667 15.9725,32.3833333 15.3725,31.35 L16.8725,33.3 L17.1225,33.7" id="Shape" fill="#FA8E47"></path>
                    <path d="M8.2225,6.15 L8.2225,4.75 C8.2225,3.98333333 8.4725,3.33333333 8.9725,2.8 C9.50583333,2.26666667 10.1558333,2 10.9225,2 C11.6558333,2 12.2891667,2.26666667 12.8225,2.8 C13.3558333,3.33333333 13.6225,3.98333333 13.6225,4.75 L13.6225,6.15 L12.3725,5.2 C11.5058333,4.56666667 10.5391667,4.56666667 9.4725,5.2 L8.2225,6.15" id="Path" fill="#4F4C4C"></path>
                    <path d="M7.1225,29.35 L7.7225,28.15 C8.05583333,27.5833333 8.45583333,27.1333333 8.9225,26.8 C10.2558333,25.9333333 11.5891667,25.9333333 12.9225,26.8 C13.3891667,27.1333333 13.7891667,27.5833333 14.1225,28.15 L14.7725,29.35 L15.3225,31.3 L15.5725,32.6 C15.6725,33.1666667 15.6391667,33.6666667 15.4725,34.1 C15.2058333,34.6333333 14.6558333,35.0333333 13.8225,35.3 L10.9225,35.55 L8.0225,35.3 C7.18916667,35.0333333 6.63916667,34.6333333 6.3725,34.1 C6.20583333,33.6666667 6.1725,33.1666667 6.2725,32.6 L6.5225,31.3 L7.1225,29.35" id="Path" fill="#333333"></path>
                </g>
            </g>
        </g>
    </g>
</svg>