<?xml version="1.0" encoding="UTF-8"?>
<svg width="61px" height="61px" viewBox="0 0 61 61" version="1.1" xmlns="http://www.w3.org/2000/svg" xmlns:xlink="http://www.w3.org/1999/xlink">
    <!-- Generator: Sketch 53.2 (72643) - https://sketchapp.com -->
    <title>Group 4</title>
    <desc>Created with Sketch.</desc>
    <g id="Page-1" stroke="none" stroke-width="1" fill="none" fill-rule="evenodd">
        <g id="Artboard" transform="translate(-382.000000, -991.000000)">
            <g id="Group-4" transform="translate(382.000000, 991.000000)">
                <rect id="Rectangle" fill-opacity="0.01" fill="#FFFFFF" opacity="0.2" x="0" y="0" width="61" height="61"></rect>
                <g id="Group-2" transform="translate(13.000000, 0.000000)" fill-rule="nonzero">
                    <path d="M25.45,0.5 C29.35,0.933333333 32.0166667,3.48333333 33.45,8.15 C34.1166667,10.3166667 34.4666667,13.0333333 34.5,16.3 L34.5,16.45 L34.3,20.3 L34.1,26.7 C33.9333333,33.4333333 33.9666667,40.05 34.2,46.55 L34.3,48.85 L34.3,48.95 L34.3,49.1 L34.3,49.15 L34.25,50.5 C33.9166667,56.6333333 30.45,59.7666667 23.85,59.9 L17.25,60.05 L10.75,59.9 C4.08333333,59.7666667 0.583333333,56.65 0.25,50.55 L0.2,49.15 L0.2,49.1 L0.2,48.95 L0.2,48.85 L0.3,46.55 C0.533333333,40.05 0.583333333,33.4333333 0.45,26.7 L0.2,20.3 L0,16.45 L0,16.3 C0.0666666667,13.0333333 0.433333333,10.3166667 1.1,8.15 C2.53333333,3.41666667 5.23333333,0.85 9.2,0.45 L9.35,0.4 L9.4,0.4 L10.05,0.35 L10,0.4 L10.45,0.3 L10.5,0.3 L17.25,-1.42108547e-13 L24.05,0.3 L24.4,0.35 L25.1,0.4 L25.2,0.45 L25.3,0.45 L25.45,0.5 M31.5,8.7 C30.3333333,4.9 28.1833333,2.81666667 25.05,2.45 L24.95,2.4 L24.25,2.35 L23.85,2.3 L17.25,2 L10.65,2.3 L10.25,2.35 L9.55,2.4 L9.45,2.4 C6.31666667,2.8 4.16666667,4.9 3,8.7 C2.4,10.7333333 2.06666667,13.2666667 2,16.3 L2.2,20.2 L2.45,26.65 C2.58333333,33.4166667 2.53333333,40.0666667 2.3,46.6 L2.2,48.95 L2.2,49.1 L2.2,49.15 L2.25,50.35 C2.55,55.2833333 5.38333333,57.8 10.75,57.9 L17.25,58.05 L23.75,57.9 C29.1166667,57.8 31.95,55.2833333 32.25,50.35 L32.3,49.15 L32.3,49.1 L32.3,48.95 L32.2,46.6 C31.9666667,40.0666667 31.9333333,33.4166667 32.1,26.65 L32.3,20.2 L32.5,16.3 C32.4666667,13.2666667 32.1333333,10.7333333 31.5,8.7" id="Shape" fill="#3A3535"></path>
                    <path d="M31.5,8.7 C32.1333333,10.7333333 32.4666667,13.2666667 32.5,16.3 L32.3,20.2 L32.1,26.65 C30.6666667,28.2833333 29.85,31.55 29.65,36.45 C29.4833333,41.0833333 30.3333333,44.4666667 32.2,46.6 L32.3,48.95 L32.3,49.1 L32.3,49.15 L32.25,50.35 C31.95,55.2833333 29.1166667,57.8 23.75,57.9 L17.25,58.05 L10.75,57.9 C5.38333333,57.8 2.55,55.2833333 2.25,50.35 L2.2,49.15 L2.2,49.1 L2.2,48.95 L2.3,46.6 C4.16666667,44.4666667 5.01666667,41.0833333 4.85,36.45 C4.65,31.55 3.85,28.2833333 2.45,26.65 L2.2,20.2 L2,16.3 C2.06666667,13.2666667 2.4,10.7333333 3,8.7 C5.93333333,7.8 8.08333333,5.7 9.45,2.4 L9.55,2.4 L10.25,2.35 L10.65,2.3 L17.25,2 L23.85,2.3 L24.25,2.35 L24.95,2.4 L25.05,2.45 C26.4166667,5.71666667 28.5666667,7.8 31.5,8.7 M28.65,26.6 L28.75,22.2 L28.75,22.05 L28.75,21.9 L28.75,21.2 L28.75,21.05 L28.65,20.75 L26.65,10.1 C25.7833333,8.03333333 24.1333333,7.08333333 21.7,7.25 L12.8,7.25 C10.3666667,7.08333333 8.71666667,8.03333333 7.85,10.1 L5.85,20.75 L5.75,21.05 L5.75,21.2 L5.8,21.9 L5.75,22.05 L5.75,22.2 L5.85,26.6 L6,31.45 C6.03333333,31.7833333 6.21666667,31.95 6.55,31.95 L17.25,31 L27.95,31.95 C28.2833333,31.95 28.4666667,31.7833333 28.5,31.45 L28.65,26.6 M7.4,46.3 L9.75,46.95 C12.35,47.5833333 14.85,47.9166667 17.25,47.95 C19.65,47.9166667 22.15,47.5833333 24.75,46.95 L27.1,46.3 L27.75,46.1 L27.8,46.05 L27.65,42 L26.5,42.3 C23.5666667,43 20.4833333,43.3333333 17.25,43.3 C14.0166667,43.3333333 10.9333333,43 8,42.3 L6.85,42 L6.7,46.05 L6.8,46.1 L7.4,46.3" id="Shape" fill="#5D5B5B"></path>
                    <path d="M25.05,2.45 C28.1833333,2.81666667 30.3333333,4.9 31.5,8.7 C28.5666667,7.8 26.4166667,5.71666667 25.05,2.45 M3,8.7 C4.16666667,4.9 6.31666667,2.8 9.45,2.4 C8.08333333,5.7 5.93333333,7.8 3,8.7 M28.75,21.9 L28.75,22.05 L28.75,22.2 L28.65,26.6 L28.6,26.6 L27.5,26.35 L17.25,25.25 C13.6833333,25.3166667 10.2666667,25.6833333 7,26.35 L5.9,26.6 L5.85,26.6 L5.75,22.2 L5.75,22.05 L5.8,21.9 L5.85,21.75 L6.25,21.65 L6.35,21.65 C10.0166667,20.65 13.65,20.15 17.25,20.15 C20.85,20.15 24.4833333,20.65 28.15,21.65 L28.25,21.65 L28.65,21.75 L28.75,21.9" id="Shape" fill="#FFFFFF"></path>
                    <path d="M28.75,21.9 L28.65,21.75 L28.25,21.65 L28.15,21.65 C24.4833333,20.65 20.85,20.15 17.25,20.15 C13.65,20.15 10.0166667,20.65 6.35,21.65 L6.25,21.65 L5.85,21.75 L5.8,21.9 L5.75,21.2 L5.75,21.05 L5.85,20.75 L7.85,10.1 C8.71666667,8.03333333 10.3666667,7.08333333 12.8,7.25 L21.7,7.25 C24.1333333,7.08333333 25.7833333,8.03333333 26.65,10.1 L28.65,20.75 L28.75,21.05 L28.75,21.2 L28.75,21.9 M32.1,26.65 C31.9333333,33.4166667 31.9666667,40.0666667 32.2,46.6 C30.3333333,44.4666667 29.4833333,41.0833333 29.65,36.45 C29.85,31.55 30.6666667,28.2833333 32.1,26.65 M2.3,46.6 C2.53333333,40.0666667 2.58333333,33.4166667 2.45,26.65 C3.85,28.2833333 4.65,31.55 4.85,36.45 C5.01666667,41.0833333 4.16666667,44.4666667 2.3,46.6" id="Shape" fill="#4F4C4C"></path>
                    <path d="M28.65,26.6 L28.5,31.45 C28.4666667,31.7833333 28.2833333,31.95 27.95,31.95 L17.25,31 L6.55,31.95 C6.21666667,31.95 6.03333333,31.7833333 6,31.45 L5.85,26.6 L5.9,26.6 L7,26.35 C10.2666667,25.6833333 13.6833333,25.3166667 17.25,25.25 L27.5,26.35 L28.6,26.6 L28.65,26.6 M7.4,46.3 L6.8,46.1 L6.7,46.05 L6.85,42 L8,42.3 C10.9333333,43 14.0166667,43.3333333 17.25,43.3 C20.4833333,43.3333333 23.5666667,43 26.5,42.3 L27.65,42 L27.8,46.05 L27.75,46.1 L27.1,46.3 L24.75,46.95 C22.15,47.5833333 19.65,47.9166667 17.25,47.95 C14.85,47.9166667 12.35,47.5833333 9.75,46.95 L7.4,46.3" id="Shape" fill="#EEEEEE"></path>
                </g>
            </g>
        </g>
    </g>
</svg>