<?xml version="1.0" encoding="UTF-8"?>
<svg width="9px" height="23px" viewBox="0 0 9 23" version="1.1" xmlns="http://www.w3.org/2000/svg" xmlns:xlink="http://www.w3.org/1999/xlink">
    <!-- Generator: Sketch 53.2 (72643) - https://sketchapp.com -->
    <title>Group</title>
    <desc>Created with Sketch.</desc>
    <g id="Page-1" stroke="none" stroke-width="1" fill="none" fill-rule="evenodd">
        <g id="Artboard" transform="translate(-1335.000000, -230.000000)" fill-rule="nonzero">
            <g id="Group" transform="translate(1335.596630, 230.208162)">
                <g id="Layer0_255_FILL-link">
                    <g id="Layer0_255_FILL">
                        <path d="M2.9952106,20.3598795 L2.89646739,19.0442169 L2.89646739,18.9455422 L2.56732337,14.2749398 C2.0845788,15.5906024 1.66766304,17.2790361 1.31657609,19.340241 L2.9952106,20.3598795 L2.9952106,20.3598795 Z M5.39796196,18.9455422 L5.39796196,19.0442169 L5.29921875,20.3598795 L6.97785326,19.340241 C6.6267663,17.2790361 6.20985054,15.5906024 5.72710598,14.2749398 L5.39796196,18.9455422 L5.39796196,18.9455422 Z M4.14721467,1.31566265 C2.89646739,2.6313253 2.21623641,4.71445783 2.10652174,7.56506024 L6.18790761,7.56506024 C6.07819293,4.71445783 5.39796196,2.6313253 4.14721467,1.31566265 Z" id="Shape" fill="#E74C3C"></path>
                        <path d="M6.54996603,21.4781928 L6.58288043,21.1492771 L5.29921875,20.3598795 L5.23338995,21.3795181 L3.0610394,21.3795181 L2.9952106,20.3598795 L1.74446332,21.1492771 L1.74446332,21.4781928 C1.76640625,21.8071084 1.90903533,22.0921687 2.17235054,22.3333735 C2.41372283,22.5745783 2.70995245,22.6951807 3.0610394,22.6951807 L5.23338995,22.6951807 C5.5844769,22.6951807 5.89167799,22.5745783 6.15499321,22.3333735 C6.39636549,22.0921687 6.5280231,21.8071084 6.54996603,21.4781928 L6.54996603,21.4781928 Z M7.5044837,7.56506024 L6.18790761,7.56506024 L5.72710598,14.2749398 L7.07659647,14.1104819 L7.5044837,7.66373494 C7.5044837,7.61987952 7.5044837,7.58698795 7.5044837,7.56506024 L7.5044837,7.56506024 Z M2.10652174,7.56506024 L0.789945652,7.56506024 C0.789945652,7.58698795 0.789945652,7.61987952 0.789945652,7.66373494 L1.25074728,14.1104819 L2.56732337,14.2749398 L2.10652174,7.56506024 Z" id="Shape" fill="#809395"></path>
                        <path d="M7.07659647,14.1104819 L5.72710598,14.2749398 C6.20985054,15.5906024 6.6267663,17.2790361 6.97785326,19.340241 L5.29921875,20.3598795 L6.58288043,21.1492771 L7.66905571,20.4585542 C7.88848505,20.326988 8.06402853,20.1406024 8.19568614,19.8993976 C8.30540082,19.6362651 8.33831522,19.3840964 8.29442935,19.1428916 C7.94334239,17.1255422 7.5373981,15.4480723 7.07659647,14.1104819 L7.07659647,14.1104819 Z M2.56732337,14.2749398 L1.25074728,14.1104819 C0.768002717,15.4480723 0.362058424,17.1255422 0.0329144022,19.1428916 C-0.0329144022,19.3840964 2.89696464e-15,19.6362651 0.131657609,19.8993976 C0.241372283,20.1406024 0.405944293,20.326988 0.625373641,20.4585542 L1.74446332,21.1492771 L2.9952106,20.3598795 L1.31657609,19.340241 C1.66766304,17.2790361 2.0845788,15.5906024 2.56732337,14.2749398 L2.56732337,14.2749398 Z M3.81807065,0.0657831325 C3.57669837,0.109638554 3.36824049,0.230240964 3.19269701,0.427590361 C1.72252038,1.89674699 0.921603261,4.26493976 0.789945652,7.53216867 L0.789945652,7.56506024 L2.10652174,7.56506024 C2.21623641,4.71445783 2.89646739,2.6313253 4.14721467,1.31566265 C5.39796196,2.6313253 6.07819293,4.71445783 6.18790761,7.56506024 L7.5044837,7.56506024 L7.5044837,7.53216867 C7.37282609,4.26493976 6.57190897,1.89674699 5.10173234,0.427590361 C4.92618886,0.230240964 4.72870245,0.109638554 4.5092731,0.0657831325 C4.26790082,9.72139036e-15 4.0375,9.72139036e-15 3.81807065,0.0657831325 Z" id="Shape" fill="#AF392D"></path>
                        <polygon id="Path" fill="#BDD6DB" points="2.10652174 7.56506024 2.56732337 14.2749398 2.89646739 18.9455422 2.89646739 19.0442169 2.9952106 20.3598795 3.0610394 21.3795181 5.23338995 21.3795181 5.29921875 20.3598795 5.39796196 19.0442169 5.39796196 18.9455422 5.72710598 14.2749398 6.18790761 7.56506024"></polygon>
                    </g>
                </g>
            </g>
        </g>
    </g>
</svg>